<?xml version="1.0" encoding="UTF-8" standalone="no"?>
<svg
   width="26"
   height="25.456984"
   viewBox="0 0 26 25.456984"
   version="1.1"
   id="svg866"
   sodipodi:docname="Github.svg"
   inkscape:version="1.1.2 (b8e25be8, 2022-02-05)"
   xmlns:inkscape="http://www.inkscape.org/namespaces/inkscape"
   xmlns:sodipodi="http://sodipodi.sourceforge.net/DTD/sodipodi-0.dtd"
   xmlns="http://www.w3.org/2000/svg"
   xmlns:svg="http://www.w3.org/2000/svg">
  <defs
     id="defs870" />
  <sodipodi:namedview
     id="namedview868"
     pagecolor="#ffffff"
     bordercolor="#666666"
     borderopacity="1.0"
     inkscape:pageshadow="2"
     inkscape:pageopacity="0.0"
     inkscape:pagecheckerboard="0"
     showgrid="false"
     fit-margin-top="2"
     fit-margin-left="2"
     fit-margin-right="2"
     fit-margin-bottom="2"
     inkscape:zoom="13.744607"
     inkscape:cx="10.07668"
     inkscape:cy="9.7129006"
     inkscape:window-width="1312"
     inkscape:window-height="941"
     inkscape:window-x="0"
     inkscape:window-y="25"
     inkscape:window-maximized="0"
     inkscape:current-layer="svg866" />
  <path
     fill="#333333"
     fill-rule="evenodd"
     d="M 12.998987,2 C 6.925504,2 2,6.924829 2,13.000338 c 0,4.860001 3.151539,8.982596 7.522637,10.437152 0.550355,0.101293 0.750913,-0.238374 0.750913,-0.530096 0,-0.260658 -0.0094,-0.952822 -0.01486,-1.87053 -3.059701,0.664477 -3.70527,-1.474815 -3.70527,-1.474815 -0.500384,-1.27088 -1.221584,-1.609196 -1.221584,-1.609196 -0.998742,-0.682034 0.07563,-0.668529 0.07563,-0.668529 1.104085,0.07766 1.684827,1.133798 1.684827,1.133798 0.981184,1.680776 2.574849,1.195249 3.20151,0.913656 0.09994,-0.710396 0.384235,-1.195248 0.698241,-1.470088 -2.442493,-0.277541 -5.010589,-1.221584 -5.010589,-5.436692 0,-1.200651 0.428804,-2.183186 1.132447,-2.951656 -0.113448,-0.278216 -0.49093,-1.397158 0.108045,-2.911139 0,0 0.92311,-0.295774 3.024586,1.12772 0.877191,-0.244452 1.818534,-0.366003 2.753799,-0.37073 0.934589,0.0047 1.875257,0.126278 2.753798,0.37073 2.100126,-1.423494 3.021885,-1.12772 3.021885,-1.12772 0.600326,1.513981 0.222843,2.632923 0.110071,2.911139 0.704994,0.76847 1.130422,1.751005 1.130422,2.951656 0,4.225912 -2.572148,5.155775 -5.02207,5.427913 0.394365,0.339667 0.746187,1.010897 0.746187,2.037325 0,1.470088 -0.01351,2.656558 -0.01351,3.017158 0,0.294423 0.198533,0.636791 0.756315,0.529421 C 20.851162,21.978882 24,17.858989 24,13.000338 24,6.924829 19.074496,2 12.998987,2"
     id="path864" />
</svg>
